<?xml version="1.0" encoding="UTF-8"?>
<svg xmlns="http://www.w3.org/2000/svg" xmlns:xlink="http://www.w3.org/1999/xlink" width="375pt" height="374.999991pt" viewBox="0 0 375 374.999991" version="1.2">
<defs>
<clipPath id="clip1">
  <path d="M 57.953125 57.953125 L 316.703125 57.953125 L 316.703125 316.703125 L 57.953125 316.703125 Z M 57.953125 57.953125 "/>
</clipPath>
</defs>
<g id="surface1">
<g clip-path="url(#clip1)" clip-rule="nonzero">
<path style=" stroke:none;fill-rule:nonzero;fill:rgb(32.159424%,44.309998%,100%);fill-opacity:1;" d="M 187.328125 57.953125 C 115.847656 57.953125 57.953125 115.847656 57.953125 187.328125 C 57.953125 258.804688 115.847656 316.703125 187.328125 316.703125 C 258.804688 316.703125 316.703125 258.804688 316.703125 187.328125 C 316.703125 115.847656 258.804688 57.953125 187.328125 57.953125 Z M 187.328125 290.828125 C 130.273438 290.828125 83.828125 244.382812 83.828125 187.328125 C 83.828125 130.273438 130.273438 83.828125 187.328125 83.828125 C 244.382812 83.828125 290.828125 130.273438 290.828125 187.328125 C 290.828125 244.382812 244.382812 290.828125 187.328125 290.828125 Z M 187.328125 290.828125 "/>
</g>
</g>
</svg>
