<?xml version="1.0" encoding="UTF-8"?>
<svg xmlns="http://www.w3.org/2000/svg" xmlns:xlink="http://www.w3.org/1999/xlink" width="375pt" height="374.999991pt" viewBox="0 0 375 374.999991" version="1.2">
<defs>
<clipPath id="clip1">
  <path d="M 5 123 L 368 123 L 368 132.449219 L 5 132.449219 Z M 5 123 "/>
</clipPath>
<clipPath id="clip2">
  <path d="M 5 245 L 368 245 L 368 254.511719 L 5 254.511719 Z M 5 245 "/>
</clipPath>
<clipPath id="clip3">
  <path d="M 244.015625 6 L 253.523438 6 L 253.523438 369.503906 L 244.015625 369.503906 Z M 244.015625 6 "/>
</clipPath>
<clipPath id="clip4">
  <path d="M 122 6 L 131.460938 6 L 131.460938 369.503906 L 122 369.503906 Z M 122 6 "/>
</clipPath>
</defs>
<g id="surface1">
<g clip-path="url(#clip1)" clip-rule="nonzero">
<path style=" stroke:none;fill-rule:nonzero;fill:rgb(19.999695%,19.999695%,19.999695%);fill-opacity:1;" d="M 136.09375 123.421875 C 126.929688 124.386719 120.992188 124.710938 109.796875 124.871094 C 103.007812 125.03125 95.710938 125.355469 93.507812 125.515625 C 91.300781 125.839844 88.585938 126 87.230469 126.160156 C 85.871094 126.484375 82.308594 126.644531 79.253906 126.644531 C 72.128906 126.644531 43.457031 126 43.117188 125.839844 C 42.4375 125.355469 13.59375 125.675781 9.863281 126.160156 C 5.621094 126.644531 4.941406 127.128906 5.960938 128.738281 C 6.46875 129.546875 6.808594 129.546875 11.050781 129.386719 C 24.453125 128.578125 33.953125 128.417969 48.375 128.902344 C 71.109375 129.546875 83.328125 129.386719 90.792969 128.578125 C 95.710938 127.933594 102.160156 127.773438 111.320312 127.613281 C 123.027344 127.449219 133.886719 126.96875 135.921875 126.160156 C 137.109375 125.839844 152.71875 126 156.960938 126.484375 C 159.335938 126.804688 163.410156 127.128906 165.953125 127.289062 C 168.5 127.449219 172.570312 128.09375 175.117188 128.738281 C 180.886719 130.191406 187.332031 131.15625 192.59375 131.480469 C 194.96875 131.640625 198.359375 131.964844 200.226562 132.125 C 203.449219 132.449219 219.058594 132.285156 225.675781 131.964844 C 231.785156 131.640625 242.304688 131.320312 260.457031 130.996094 C 290.148438 130.511719 290.660156 130.511719 297.953125 130.191406 C 305.757812 129.707031 304.570312 129.707031 322.214844 130.191406 C 331.039062 130.351562 338.335938 130.351562 344.613281 130.03125 C 349.703125 129.707031 356.828125 129.386719 360.390625 129.386719 C 365.992188 129.386719 367.007812 129.222656 367.347656 128.578125 C 367.6875 128.09375 367.6875 127.613281 367.347656 126.96875 C 366.667969 126 364.800781 126 351.058594 126.484375 C 340.878906 126.804688 317.464844 126.96875 308.644531 126.644531 C 305.757812 126.484375 300.5 126.804688 296.765625 126.96875 C 293.035156 127.289062 286.078125 127.613281 281.15625 127.613281 C 276.238281 127.613281 271.488281 127.773438 270.300781 127.933594 C 269.28125 127.933594 258.929688 128.257812 247.394531 128.417969 C 235.855469 128.578125 221.945312 128.902344 216.34375 129.0625 C 207.011719 129.386719 203.28125 129.386719 190.894531 128.417969 C 187.332031 128.09375 180.207031 126.96875 174.609375 125.515625 C 172.402344 125.03125 168.160156 124.386719 164.765625 124.066406 C 161.542969 123.742188 157.300781 123.421875 155.433594 123.261719 C 151.023438 122.9375 140.503906 122.9375 136.09375 123.421875 Z M 136.09375 123.421875 "/>
</g>
<g clip-path="url(#clip2)" clip-rule="nonzero">
<path style=" stroke:none;fill-rule:nonzero;fill:rgb(19.999695%,19.999695%,19.999695%);fill-opacity:1;" d="M 136.09375 245.484375 C 126.929688 246.453125 120.992188 246.773438 109.796875 246.9375 C 103.007812 247.097656 95.710938 247.417969 93.507812 247.582031 C 91.300781 247.902344 88.585938 248.0625 87.230469 248.226562 C 85.871094 248.546875 82.308594 248.710938 79.253906 248.710938 C 72.128906 248.710938 43.457031 248.0625 43.117188 247.902344 C 42.4375 247.417969 13.59375 247.742188 9.863281 248.226562 C 5.621094 248.710938 4.941406 249.191406 5.960938 250.804688 C 6.46875 251.609375 6.808594 251.609375 11.050781 251.449219 C 24.453125 250.644531 33.953125 250.480469 48.375 250.964844 C 71.109375 251.609375 83.328125 251.449219 90.792969 250.644531 C 95.710938 250 102.160156 249.835938 111.320312 249.675781 C 123.027344 249.515625 133.886719 249.03125 135.921875 248.226562 C 137.109375 247.902344 152.71875 248.0625 156.960938 248.546875 C 159.335938 248.871094 163.410156 249.191406 165.953125 249.355469 C 168.5 249.515625 172.570312 250.160156 175.117188 250.804688 C 180.886719 252.253906 187.332031 253.222656 192.59375 253.542969 C 194.96875 253.707031 198.359375 254.027344 200.226562 254.1875 C 203.449219 254.511719 219.058594 254.351562 225.675781 254.027344 C 231.785156 253.707031 242.304688 253.382812 260.457031 253.0625 C 290.148438 252.578125 290.660156 252.578125 297.953125 252.253906 C 305.757812 251.773438 304.570312 251.773438 322.214844 252.253906 C 331.039062 252.417969 338.335938 252.417969 344.613281 252.09375 C 349.703125 251.773438 356.828125 251.449219 360.390625 251.449219 C 365.992188 251.449219 367.007812 251.289062 367.347656 250.644531 C 367.6875 250.160156 367.6875 249.675781 367.347656 249.03125 C 366.667969 248.0625 364.800781 248.0625 351.058594 248.546875 C 340.878906 248.871094 317.464844 249.03125 308.644531 248.710938 C 305.757812 248.546875 300.5 248.871094 296.765625 249.03125 C 293.035156 249.355469 286.078125 249.675781 281.15625 249.675781 C 276.238281 249.675781 271.488281 249.835938 270.300781 250 C 269.28125 250 258.929688 250.320312 247.394531 250.480469 C 235.855469 250.644531 221.945312 250.964844 216.34375 251.125 C 207.011719 251.449219 203.28125 251.449219 190.894531 250.480469 C 187.332031 250.160156 180.207031 249.03125 174.609375 247.582031 C 172.402344 247.097656 168.160156 246.453125 164.765625 246.128906 C 161.542969 245.808594 157.300781 245.484375 155.433594 245.324219 C 151.023438 245 140.503906 245 136.09375 245.484375 Z M 136.09375 245.484375 "/>
</g>
<g clip-path="url(#clip3)" clip-rule="nonzero">
<path style=" stroke:none;fill-rule:nonzero;fill:rgb(19.999695%,19.999695%,19.999695%);fill-opacity:1;" d="M 253.042969 137.535156 C 252.074219 128.375 251.753906 122.4375 251.589844 111.238281 C 251.429688 104.453125 251.105469 97.15625 250.945312 94.949219 C 250.625 92.746094 250.460938 90.03125 250.300781 88.671875 C 249.980469 87.316406 249.816406 83.753906 249.816406 80.699219 C 249.816406 73.574219 250.460938 44.898438 250.625 44.558594 C 251.105469 43.882812 250.785156 15.039062 250.300781 11.304688 C 249.816406 7.0625 249.335938 6.386719 247.722656 7.402344 C 246.917969 7.910156 246.917969 8.25 247.078125 12.492188 C 247.882812 25.898438 248.042969 35.398438 247.5625 49.820312 C 246.917969 72.554688 247.078125 84.769531 247.882812 92.234375 C 248.527344 97.15625 248.691406 103.605469 248.851562 112.765625 C 249.011719 124.472656 249.496094 135.332031 250.300781 137.367188 C 250.625 138.554688 250.460938 154.164062 249.980469 158.40625 C 249.65625 160.78125 249.335938 164.851562 249.171875 167.398438 C 249.011719 169.941406 248.367188 174.015625 247.722656 176.558594 C 246.273438 182.328125 245.304688 188.777344 244.980469 194.035156 C 244.820312 196.410156 244.5 199.804688 244.335938 201.671875 C 244.015625 204.894531 244.175781 220.503906 244.5 227.121094 C 244.820312 233.226562 245.144531 243.746094 245.464844 261.902344 C 245.949219 291.59375 245.949219 292.101562 246.273438 299.398438 C 246.753906 307.203125 246.753906 306.015625 246.273438 323.660156 C 246.109375 332.484375 246.109375 339.777344 246.433594 346.054688 C 246.753906 351.144531 247.078125 358.273438 247.078125 361.835938 C 247.078125 367.433594 247.238281 368.453125 247.882812 368.792969 C 248.367188 369.128906 248.851562 369.128906 249.496094 368.792969 C 250.460938 368.113281 250.460938 366.246094 249.980469 352.503906 C 249.65625 342.324219 249.496094 318.910156 249.816406 310.085938 C 249.980469 307.203125 249.65625 301.941406 249.496094 298.210938 C 249.171875 294.476562 248.851562 287.519531 248.851562 282.601562 C 248.851562 277.679688 248.691406 272.929688 248.527344 271.742188 C 248.527344 270.722656 248.207031 260.375 248.042969 248.835938 C 247.882812 237.300781 247.5625 223.386719 247.398438 217.789062 C 247.078125 208.457031 247.078125 204.722656 248.042969 192.339844 C 248.367188 188.777344 249.496094 181.648438 250.945312 176.050781 C 251.429688 173.84375 252.074219 169.605469 252.398438 166.210938 C 252.71875 162.988281 253.042969 158.746094 253.203125 156.878906 C 253.523438 152.46875 253.523438 141.949219 253.042969 137.535156 Z M 253.042969 137.535156 "/>
</g>
<g clip-path="url(#clip4)" clip-rule="nonzero">
<path style=" stroke:none;fill-rule:nonzero;fill:rgb(19.999695%,19.999695%,19.999695%);fill-opacity:1;" d="M 130.976562 137.535156 C 130.011719 128.375 129.6875 122.4375 129.527344 111.238281 C 129.367188 104.453125 129.042969 97.15625 128.882812 94.949219 C 128.558594 92.746094 128.398438 90.03125 128.238281 88.671875 C 127.914062 87.316406 127.753906 83.753906 127.753906 80.699219 C 127.753906 73.574219 128.398438 44.898438 128.558594 44.558594 C 129.042969 43.882812 128.71875 15.039062 128.238281 11.304688 C 127.753906 7.0625 127.269531 6.386719 125.65625 7.402344 C 124.851562 7.910156 124.851562 8.25 125.011719 12.492188 C 125.820312 25.898438 125.980469 35.398438 125.496094 49.820312 C 124.851562 72.554688 125.011719 84.769531 125.820312 92.234375 C 126.464844 97.15625 126.625 103.605469 126.785156 112.765625 C 126.949219 124.472656 127.429688 135.332031 128.238281 137.367188 C 128.558594 138.554688 128.398438 154.164062 127.914062 158.40625 C 127.59375 160.78125 127.269531 164.851562 127.109375 167.398438 C 126.949219 169.941406 126.304688 174.015625 125.65625 176.558594 C 124.207031 182.328125 123.242188 188.777344 122.917969 194.035156 C 122.757812 196.410156 122.433594 199.804688 122.273438 201.671875 C 121.949219 204.894531 122.113281 220.503906 122.433594 227.121094 C 122.757812 233.226562 123.078125 243.746094 123.402344 261.902344 C 123.886719 291.59375 123.886719 292.101562 124.207031 299.398438 C 124.691406 307.203125 124.691406 306.015625 124.207031 323.660156 C 124.046875 332.484375 124.046875 339.777344 124.367188 346.054688 C 124.691406 351.144531 125.011719 358.273438 125.011719 361.835938 C 125.011719 367.433594 125.175781 368.453125 125.820312 368.792969 C 126.304688 369.128906 126.785156 369.128906 127.429688 368.792969 C 128.398438 368.113281 128.398438 366.246094 127.914062 352.503906 C 127.59375 342.324219 127.429688 318.910156 127.753906 310.085938 C 127.914062 307.203125 127.59375 301.941406 127.429688 298.210938 C 127.109375 294.476562 126.785156 287.519531 126.785156 282.601562 C 126.785156 277.679688 126.625 272.929688 126.464844 271.742188 C 126.464844 270.722656 126.140625 260.375 125.980469 248.835938 C 125.820312 237.300781 125.496094 223.386719 125.335938 217.789062 C 125.011719 208.457031 125.011719 204.722656 125.980469 192.339844 C 126.304688 188.777344 127.429688 181.648438 128.882812 176.050781 C 129.367188 173.84375 130.011719 169.605469 130.332031 166.210938 C 130.65625 162.988281 130.976562 158.746094 131.136719 156.878906 C 131.460938 152.46875 131.460938 141.949219 130.976562 137.535156 Z M 130.976562 137.535156 "/>
</g>
</g>
</svg>
