<?xml version="1.0" encoding="UTF-8"?>
<svg xmlns="http://www.w3.org/2000/svg" xmlns:xlink="http://www.w3.org/1999/xlink" width="375pt" height="374.999991pt" viewBox="0 0 375 374.999991" version="1.2">
<defs>
<clipPath id="clip1">
  <path d="M 53 53 L 322 53 L 322 322.90625 L 53 322.90625 Z M 53 53 "/>
</clipPath>
</defs>
<g id="surface1">
<g clip-path="url(#clip1)" clip-rule="nonzero">
<path style=" stroke:none;fill-rule:nonzero;fill:rgb(86.669922%,18.03894%,26.669312%);fill-opacity:1;" d="M 216.238281 187.988281 L 315.464844 88.492188 C 323.382812 80.554688 323.382812 67.679688 315.464844 59.742188 C 307.542969 51.796875 294.710938 51.796875 286.796875 59.742188 L 187.570312 159.238281 L 88.351562 59.742188 C 80.4375 51.796875 67.589844 51.796875 59.683594 59.742188 C 51.757812 67.679688 51.757812 80.554688 59.683594 88.492188 L 158.902344 187.988281 L 59.453125 287.71875 C 51.53125 295.667969 51.53125 308.53125 59.453125 316.46875 C 63.414062 320.4375 68.601562 322.421875 73.792969 322.421875 C 78.984375 322.421875 84.175781 320.4375 88.132812 316.46875 L 187.578125 216.738281 L 286.796875 316.234375 C 290.753906 320.203125 295.945312 322.1875 301.136719 322.1875 C 306.328125 322.1875 311.507812 320.203125 315.476562 316.234375 C 323.390625 308.289062 323.390625 295.421875 315.476562 287.484375 Z M 216.238281 187.988281 "/>
</g>
</g>
</svg>
